<svg xmlns="http://www.w3.org/2000/svg"  viewBox="0 0 48 48" width="48px" height="48px" baseProfile="basic"><path fill="#fcbf95" d="M24.47,16.941c-1.93-0.164-3.543,0.157-5.419,0.634c-1.978,0.504-3.571,1.301-5.333,2.332 c-1.762,1.032-3.459,2.985-4.329,4.458c-0.75,1.27-1.229,2.479-1.521,3.925c-0.2,0.99-0.214,2.069-0.227,3.08 c-0.045,3.419,1.918,6.495,4.692,8.494c2.774,1.999,3.764,2.763,7.066,3.653c1.248,0.336,4.129,0.439,5.421,0.483 c1.126,0.038,5.76-1.136,7.006-1.599c3.271-1.214,6.311-4.109,7.595-7.409c1.266-3.251,1.192-5.217,0.266-8.581 c-0.308-1.12-1.513-2.819-2.251-3.715c-0.774-0.938-1.964-2.06-3.791-3.159C30.624,17.72,27.982,17.239,24.47,16.941z"/><path fill="#d6e5e5" d="M22.13,30.436c-0.01,0.72-0.1,1.45-0.26,2.15c-0.29,1.31-0.85,2.57-1.7,3.61 c-1.47,1.78-3.69,2.91-5.98,3.05c-1.44,0.09-2.98-0.25-3.96-1.3c-0.01,0-0.02-0.01-0.03-0.02c-1.59-1.83-2.6-4.11-2.56-6.56 c0.01-1.01,0.03-2.09,0.23-3.08c0.25-1.23,0.64-2.3,1.21-3.38c1.64,0.6,3.95,0.41,5.67,0.13c1.79-0.3,3.59-0.63,5.28-1.32 c0.39,0.42,0.9,1.19,1.14,1.71c0.13,0.28,0.5,1.21,0.57,1.5C22.07,28.316,22.14,29.776,22.13,30.436z"/><path fill="#d6e5e5" d="M39.42,34.996c-0.29,0.74-0.66,1.46-1.11,2.14l-0.01,0.01c-0.97,0.41-1.91,0.64-2.96,0.83 c-2.64,0.47-5.26-0.33-7.31-2.38c-0.57-0.57-1.14-1.14-1.55-1.84c-1.25-2.09-0.97-5-0.56-6.33c0.37-1.18,1.23-2.75,2.11-3.6 c0.98,0.38,2.06,0.71,2.48,0.78c2.91,0.47,5.62,1.03,8.48,0.3c0.32,0.54,0.58,1.07,0.7,1.51 C40.61,29.776,40.69,31.746,39.42,34.996z"/><path fill="#ed488b" d="M38.04,30.596c0.01,0.51-0.03,3.37-1.96,5.23c-1.1,1.05-2.71,1.88-4.03,2.06 c-1.46-0.34-2.84-1.11-4.02-2.29c-0.57-0.57-1.14-1.14-1.55-1.84c-1.25-2.09-0.97-5-0.56-6.33c0.37-1.18,1.23-2.75,2.11-3.6 c1.036-0.892,3.357-1.93,3.777-1.86c2.14,0.34,3.809,1.75,4.923,3.27C37.67,26.946,37.97,28.636,38.04,30.596z"/><path fill="#ed488b" d="M22.13,30.436c-0.01,0.72-0.1,1.45-0.26,2.15c-0.29,1.31-0.85,2.57-1.7,3.61 c-0.76,0.92-1.72,1.67-2.79,2.2h-0.01c-2.99-0.13-5.25-1.55-6.58-4.03c-0.81-1.5-0.82-3.12-0.71-4.82c0.1-1.73,0.59-2.94,1.19-4.22 v-0.01c1.179-1.49,2.475-2.271,3.615-2.461c1.79-0.3,3.605-0.033,5.145,0.861c0.39,0.42,0.9,1.19,1.14,1.71 c0.13,0.28,0.5,1.21,0.57,1.5C22.07,28.316,22.14,29.776,22.13,30.436z"/><path fill="#d6e5e5" d="M20.069,30.675c0.327-0.478,0.348-0.984,0.401-1.538c0.034-0.36,0.009-0.884-0.151-1.212 c-0.33-0.679-1.237-1.048-2.022-0.797c-0.57,0.182-0.904,0.402-1.277,0.9c-0.301,0.401-0.562,0.906-0.521,1.422 c0.023,0.293,0.065,0.691,0.281,1.024c0.283,0.436,0.567,0.703,1.041,0.915C18.601,31.738,19.588,31.38,20.069,30.675z"/><path fill="#d6e5e5" d="M27.371,28.555c0.051-0.655,0.461-1.047,0.864-1.298s0.921-0.181,1.391-0.107 c0.71,0.112,1.191,0.666,1.335,1.142c0.144,0.476,0.2,0.925,0.069,1.532c-0.063,0.291-0.159,0.59-0.403,0.844 c-0.266,0.277-0.591,0.509-0.974,0.535c-0.383,0.026-0.765-0.091-1.106-0.268C27.906,30.601,27.224,29.73,27.371,28.555"/><path fill="#010101" d="M33.75,24.636v-0.03c-0.53-0.04-0.87-0.03-0.87-0.03c-0.6-1.48-2.13-2.55-3.66-3.01 c0.6,0.71,0.96,1.61,1.01,2.54c-0.87-0.08-1.7-0.14-2.53-0.12c-0.11,0-0.22,0.01-0.33,0.01l0.02,0.4 c-0.66,0.83-0.97,1.94-1.23,2.98c-0.57,2.23-0.93,4.3,0.32,6.39c0.41,0.69,0.98,1.26,1.55,1.83c0.54,0.41,1.05,0.4,1.56,0.4 c0.91,0.01,1.8-0.13,2.65-0.46c1.16-0.44,2.26-1.47,2.81-2.58C36.15,30.716,35.61,27.086,33.75,24.636z M31.03,29.826 c-0.06,0.29-0.16,0.59-0.4,0.85c-0.27,0.27-0.59,0.51-0.98,0.53c-0.38,0.03-0.76-0.09-1.1-0.27c-0.64-0.33-1.33-1.2-1.18-2.38 c0.05-0.65,0.46-1.04,0.87-1.29c0.4-0.26,0.92-0.19,1.39-0.11c0.71,0.11,1.19,0.66,1.33,1.14 C31.11,28.776,31.16,29.226,31.03,29.826z"/><path fill="#010101" d="M21.74,26.936c-0.07-0.3-0.44-1.23-0.57-1.5c-0.24-0.52-0.56-0.94-0.94-1.36 c-0.77,0.03-1.53,0.03-2.29-0.02c0.23-1.23,0.84-2.39,1.71-3.28c-1.56,0.44-2.98,1.38-3.97,2.66c-0.14,0.18-0.28,0.36-0.48,0.46 c-0.15,0.07-0.32,0.09-0.49,0.1c-0.11,0.01-0.22,0.02-0.32,0.04c-1.11,1.62-1.76,3.92-1.88,5.17c-0.13,1.32-0.08,2.7,0.44,3.92 c0.59,1.37,1.76,2.48,3.16,2.98c1.4,0.5,3.01,0.39,4.33-0.3l0.02,0.02c0.69-0.96,1.15-2.08,1.41-3.23 c0.16-0.71,0.25-1.43,0.26-2.16C22.14,29.786,22.07,28.326,21.74,26.936z M20.47,29.146c-0.05,0.55-0.07,1.06-0.4,1.53 c-0.48,0.71-1.47,1.07-2.25,0.72c-0.47-0.21-0.76-0.48-1.04-0.92c-0.22-0.33-0.26-0.73-0.28-1.02c-0.04-0.52,0.22-1.02,0.52-1.42 c0.37-0.5,0.71-0.72,1.28-0.9c0.78-0.25,1.69,0.11,2.02,0.79C20.48,28.256,20.5,28.786,20.47,29.146z"/><path fill="#f58420" d="M39.87,27.023l-0.04,0.01c-0.86-0.99-2.05-1.59-3.21-1.95h-0.01c-1.09-0.35-2.15-0.48-2.86-0.53 c-0.53-0.04-0.87-0.03-0.87-0.03c-0.6-1.48-2.13-2.55-3.66-3.01c0.6,0.71,0.96,1.61,1.01,2.54c-0.87-0.08-1.7-0.14-2.53-0.12 c-0.11,0-0.22,0.01-0.33,0.01c-0.57,0.03-1.15,0.1-1.73,0.23c-0.16-1.6-0.4-3-1.22-4.37c-1.06,1.13-1.84,2.53-2.23,4.03 c-0.65,0.09-1.31,0.15-1.96,0.19c-0.77,0.03-1.53,0.03-2.29-0.02c0.23-1.23,0.84-2.39,1.71-3.28c-1.56,0.44-2.98,1.38-3.97,2.66 c-0.14,0.18-0.28,0.36-0.48,0.46c-0.15,0.07-0.32,0.09-0.49,0.1c-0.11,0.01-0.22,0.02-0.32,0.04c-1,0.12-1.99,0.38-2.91,0.78 c-1.19,0.49-2.29,1.2-3.23,2.08l-0.02-0.01c0.29-0.87,0.67-1.68,1.16-2.52c0.87-1.47,2.57-3.42,4.33-4.45 c0.43-0.25,0.84-0.49,1.26-0.71c1.29-0.7,2.57-1.24,4.07-1.63c0.65-0.16,1.32-0.31,1.98-0.43c1.13-0.19,2.28-0.27,3.4-0.1h0.03 c0.85-0.01,1.65,0.02,2.42,0.11c2.13,0.23,4.01,0.86,6.01,1.96c0.25,0.13,0.5,0.28,0.75,0.43c1.83,1.1,3.02,2.22,3.8,3.16 c0.73,0.89,1.94,2.59,2.25,3.71C39.75,26.593,39.81,26.813,39.87,27.023z"/><path fill="#ef4754" d="M33.9,17.329c-0.25,0.62-0.6,1.19-1.01,1.72c-2-1.1-3.88-1.73-6.01-1.96 c-0.77-0.09-1.57-0.12-2.42-0.11h-0.03c-1.12-0.17-2.27-0.09-3.4,0.1c-0.66,0.12-1.33,0.27-1.98,0.43 c-1.5,0.39-2.78,0.93-4.07,1.63l-0.02-0.04c-0.94-1.04-1.04-2.56-1.1-3.96c-0.05-1.18-0.1-2.38,0.06-3.55 c0.23-1.76,0.91-3.43,1.72-5.01c0.37-0.73,0.77-1.46,1.3-2.08c0.57-0.67,1.41-1.25,2.26-1.07c0.28,0.06,0.54,0.2,0.77,0.36 c0.84,0.58,1.42,1.46,1.78,2.41c0.37,0.94,0.54,1.95,0.69,2.95c0.24,1.62,0.44,3.25,0.48,4.89l0.08,0.49 c0.62-0.35,1.41-0.39,2.06-0.1c0.31-3.11,0.99-6.92,2.9-9.39c0.45-0.56,1.04-1.11,1.76-1.13c0.95-0.03,1.66,0.84,2.15,1.65 c0.71,1.16,1.32,2.38,1.82,3.65c0.22,0.56,0.42,1.12,0.53,1.71c0.09,0.52,0.12,1.05,0.14,1.58 C34.44,14.129,34.5,15.809,33.9,17.329z"/><g><path fill="#010101" d="M25.303,36.368c-0.242,0.011-0.536,0.222-0.5,0.5c0.012,0.09,0.011,0.177,0.009,0.268 c0,0.003,0,0.001,0,0.004c-0.003,0.017-0.006,0.034-0.01,0.052c-0.008,0.037-0.018,0.074-0.03,0.11 c-0.009,0.03-0.08,0.17-0.019,0.059c-0.018,0.034-0.034,0.069-0.053,0.102c-0.025,0.045-0.054,0.087-0.082,0.13 c-0.005,0.008-0.003,0.005-0.005,0.01c-0.004,0.004-0.003,0.002-0.011,0.01c-0.055,0.057-0.109,0.11-0.167,0.162 c-0.016,0.011-0.067,0.05-0.081,0.059c-0.032,0.02-0.066,0.039-0.1,0.057c-0.013,0.007-0.027,0.013-0.04,0.02 c-0.042,0.012-0.082,0.028-0.124,0.039c-0.011,0.003-0.079,0.013-0.098,0.018c-0.029,0.001-0.066,0.003-0.072,0.003 c-0.024,0-0.067,0.002-0.097-0.005c-0.024-0.005-0.049-0.01-0.073-0.017c-0.037-0.01-0.073-0.023-0.109-0.033 c-0.007-0.003-0.004-0.002-0.009-0.003c-0.015-0.007-0.031-0.014-0.046-0.022c-0.034-0.018-0.067-0.037-0.099-0.057 c-0.016-0.01-0.073-0.056-0.083-0.062c-0.056-0.052-0.111-0.104-0.164-0.16c-0.008-0.008-0.006-0.005-0.01-0.01 c-0.003-0.005-0.001-0.003-0.006-0.011c-0.028-0.043-0.057-0.085-0.082-0.13c-0.019-0.034-0.035-0.068-0.052-0.102 c0.059,0.115-0.01-0.031-0.018-0.059c-0.011-0.036-0.021-0.073-0.029-0.11c-0.003-0.014-0.005-0.028-0.008-0.042 c-0.001-0.095-0.004-0.186,0.008-0.281c0.035-0.26-0.255-0.511-0.5-0.5c-0.301,0.013-0.463,0.221-0.5,0.5 c-0.106,0.79,0.426,1.624,1.144,1.937c0.399,0.174,0.844,0.226,1.263,0.085c0.417-0.139,0.754-0.406,1.013-0.758 c0.258-0.351,0.401-0.825,0.344-1.26C25.769,36.61,25.597,36.355,25.303,36.368z"/><path fill="#010101" d="M40.754,28.962c-0.234-1.661-0.65-3.237-1.548-4.664c-0.774-1.23-1.685-2.389-2.776-3.352 c-0.877-0.774-1.828-1.434-2.828-2.002c1.069-1.666,1.358-3.48,1.297-5.49c-0.033-1.09-0.053-2.203-0.358-3.257 c-0.293-1.012-0.738-1.997-1.202-2.941c-0.694-1.412-1.774-3.917-3.71-3.782c-1.762,0.123-2.863,2.345-3.449,3.757 c-0.874,2.11-1.153,4.401-1.38,6.657c-0.224-0.055-0.452-0.093-0.684-0.09c-0.249,0.003-0.482,0.047-0.708,0.112 c-0.069-2.281-0.291-4.697-0.884-6.899c-0.43-1.599-1.587-3.919-3.503-4.043c-2.05-0.132-3.264,2.283-4.012,3.815 c-0.972,1.989-1.642,4.055-1.691,6.284c-0.042,1.916-0.12,4.269,0.954,5.96c-0.204,0.112-0.411,0.218-0.611,0.334 c-2.72,1.582-4.882,4.33-5.873,7.331c-0.01,0.021-0.015,0.043-0.021,0.065c-0.06,0.186-0.132,0.37-0.183,0.558 c-0.894,3.288-0.582,6.961,1.367,9.807c0.26,0.379,0.543,0.732,0.839,1.071c0.019,0.029,0.029,0.059,0.056,0.086 c0.052,0.054,0.11,0.097,0.165,0.147c0.724,0.785,1.533,1.482,2.414,2.117c1.149,0.828,2.298,1.681,3.58,2.297 c1.255,0.604,2.651,1.099,4.03,1.312c1.415,0.218,2.855,0.277,4.284,0.33c0.992,0.037,1.94-0.139,2.909-0.345 c1.244-0.264,2.482-0.572,3.703-0.928C36.925,41.464,41.652,35.339,40.754,28.962z M25.793,13.944 c0.212-2.116,0.473-4.273,1.274-6.261c0.393-0.976,0.947-2.057,1.742-2.768c0.982-0.878,1.877-0.193,2.484,0.728 c1.265,1.921,2.423,4.256,2.552,6.578c0.065,1.173,0.14,2.376-0.033,3.543c-0.149,1.007-0.547,1.884-1.095,2.71 c-1.684-0.832-3.495-1.397-5.37-1.697c-0.155-0.387-0.308-0.774-0.466-1.16c-0.15-0.366-0.321-0.707-0.626-0.969 c-0.183-0.157-0.386-0.291-0.598-0.413C25.726,14.161,25.781,14.068,25.793,13.944z M25.547,15.357 c0.232,0.192,0.338,0.45,0.448,0.722c0.074,0.185,0.149,0.37,0.223,0.555c-0.582-0.07-1.163-0.145-1.747-0.196 c-0.863-0.065-1.726-0.036-2.583,0.054c0.191-0.287,0.396-0.563,0.626-0.821c0.403-0.452,0.876-0.837,1.505-0.872 C24.576,14.769,25.12,15.004,25.547,15.357z M14.389,15.776c-0.07-1.133-0.121-2.285-0.041-3.419 c0.163-2.326,1.142-4.679,2.372-6.642c0.498-0.794,1.445-2.082,2.555-1.679c1.042,0.378,1.728,1.592,2.078,2.572 c0.397,1.11,0.547,2.302,0.708,3.464c0.186,1.337,0.318,2.68,0.354,4.031c0.003,0.099,0.034,0.178,0.076,0.246 c-0.814,0.568-1.432,1.487-1.888,2.333c-1.889,0.352-3.728,1.02-5.447,1.877C14.598,17.751,14.449,16.742,14.389,15.776z M13.314,20.765c3.101-2.223,7.334-3.613,11.156-3.326c2.818,0.244,5.485,0.768,7.97,2.019c0.086,0.09,0.206,0.15,0.338,0.168 c0.345,0.184,0.687,0.38,1.024,0.595c1.222,0.779,2.354,1.708,3.28,2.827c0.627,0.758,1.249,1.604,1.701,2.511 c-1.632-1.034-3.707-1.479-5.595-1.486c-0.761-1.505-2.257-2.497-3.836-3.001c-0.521-0.166-0.772,0.479-0.486,0.836 c0.39,0.488,0.652,1.051,0.783,1.652c-1.202-0.087-2.394-0.096-3.585,0.093c-0.178-1.42-0.483-2.791-1.208-4.055 c-0.156-0.271-0.566-0.337-0.785-0.101c-1.045,1.127-1.8,2.456-2.25,3.919c-0.528,0.067-1.058,0.112-1.588,0.136 c-0.014,0-0.027,0.002-0.041,0.003c-0.533,0.023-1.066,0.014-1.599-0.002c0.284-0.906,0.748-1.726,1.417-2.426 c0.338-0.354,0.004-0.978-0.486-0.836c-1.023,0.296-1.976,0.768-2.819,1.421c-0.437,0.339-0.84,0.715-1.197,1.137 c-0.17,0.201-0.338,0.51-0.597,0.613c-0.17,0.068-0.391,0.077-0.601,0.088c-0.005,0.001-0.01,0-0.015,0.001 c-0.079,0.004-0.163,0.007-0.231,0.016c-1.654,0.237-3.22,0.855-4.606,1.762C10.352,23.536,11.666,21.946,13.314,20.765z M37.371,32.286c-0.555,2.62-2.665,4.632-5.316,5.087c-0.713-0.185-1.374-0.474-1.989-0.845c0.923-0.051,1.862-0.31,2.58-0.628 c1.372-0.608,2.513-1.807,3.05-3.206c0.922-2.397,0.327-5.318-0.988-7.517c0.519,0.072,1.036,0.187,1.54,0.338 C37.386,27.482,37.844,30.051,37.371,32.286z M27.995,24.485c0.744-0.002,1.491,0.052,2.238,0.117c0.254,0.022,0.521-0.247,0.5-0.5 c-0.044-0.527-0.16-1.021-0.342-1.488c0.89,0.512,1.638,1.237,2.06,2.206c0.067,0.154,0.273,0.251,0.432,0.248 c0.186-0.004,0.377,0.004,0.567,0.01c1.346,1.911,2.078,4.505,1.461,6.801c-0.332,1.238-1.193,2.292-2.304,2.925 c-0.621,0.354-1.339,0.549-2.045,0.637c-0.735,0.093-1.565,0.151-2.214-0.25c-0.091-0.087-0.183-0.172-0.271-0.263 c-1.45-1.483-2.124-3.157-1.882-5.237c0.108-0.93,0.347-1.853,0.596-2.754C27.039,26.044,27.354,25.172,27.995,24.485z M17.418,37.799c-1.286,0.038-2.574-0.14-3.705-0.79c-1.077-0.619-1.891-1.585-2.48-2.668c-0.81-1.49-0.77-3.263-0.648-4.907 c0.112-1.519,0.65-2.863,1.291-4.223c0.49-0.193,0.995-0.351,1.513-0.474c-1.363,2.539-2.014,5.87-0.919,8.519 c1.075,2.6,3.774,3.937,6.392,3.551C18.419,37.19,17.935,37.522,17.418,37.799z M20.402,34.989 c-0.083,0.14-0.178,0.273-0.271,0.407c-2.804,1.349-6.166-0.184-6.967-3.197c-0.673-2.533,0.146-5.517,1.528-7.7 c0.033-0.004,0.065-0.011,0.099-0.015c1.014-0.119,1.397-0.987,2.097-1.626c0.403-0.368,0.847-0.681,1.319-0.943 c-0.346,0.621-0.605,1.288-0.753,1.998c-0.069,0.331,0.144,0.613,0.482,0.633c0.684,0.041,1.366,0.044,2.046,0.019 c1.088,1.289,1.466,2.937,1.601,4.594C21.747,31.171,21.445,33.231,20.402,34.989z M8.889,34.973 c-0.671-1.515-0.788-3.069-0.726-4.706c0.04-1.066,0.242-2.111,0.559-3.12c0.554-0.496,1.149-0.919,1.776-1.277 c-0.455,1.103-0.802,2.224-0.905,3.453c-0.156,1.861-0.138,3.844,0.777,5.524c0.656,1.205,1.585,2.285,2.773,2.988 c0.638,0.377,1.327,0.622,2.037,0.776c-1.585,0.319-3.369,0.178-4.56-0.982C9.919,36.831,9.32,35.946,8.889,34.973z M31.551,41.968 c-1.946,0.679-4.069,1.216-6.114,1.486c-0.95,0.125-1.95,0.001-2.902-0.057c-1.371-0.084-2.67-0.239-3.985-0.644 c-1.227-0.378-2.377-0.884-3.462-1.573c-0.716-0.455-1.436-0.937-2.128-1.449c1.599,0.18,3.327-0.238,4.772-0.975 c0.019-0.008,0.037-0.018,0.054-0.028c0.463-0.24,0.899-0.508,1.286-0.803c0.67-0.51,1.221-1.102,1.69-1.743 c0.074-0.053,0.124-0.116,0.151-0.186c1.487-2.158,1.922-4.909,1.592-7.577c-0.176-1.417-0.558-2.761-1.336-3.927 c0.385-0.035,0.77-0.077,1.154-0.131c0.166-0.023,0.308-0.198,0.349-0.349c0.323-1.193,0.881-2.278,1.638-3.239 c0.483,1.09,0.702,2.251,0.826,3.451c0.034,0.333,0.291,0.556,0.633,0.482c0.307-0.067,0.616-0.107,0.924-0.141 c-0.328,0.534-0.571,1.116-0.757,1.726c-0.317,1.039-0.577,2.116-0.716,3.194c-0.284,2.211,0.318,4.195,1.844,5.834 c1.393,1.497,3.061,2.693,5.095,3.109c1.568,0.32,3.219,0.163,4.768-0.28C35.495,39.858,33.62,41.246,31.551,41.968z M39.835,31.462c-0.151,1.546-0.677,3.126-1.407,4.492c-0.141,0.265-0.302,0.522-0.464,0.778c-1.082,0.435-2.263,0.756-3.448,0.844 c1.874-1.004,3.306-2.786,3.788-4.884c0.493-2.149,0.221-4.57-0.665-6.624c0.667,0.337,1.276,0.761,1.776,1.299 C39.748,28.708,39.97,30.079,39.835,31.462z"/></g></svg>